REM DIRINDEX 1\2,1\3,1\4
REM DIRNAME folder01,folder02,folder03,folder04
TITLE ""
FILE "Disk2Track29.mp3" MP3
  TRACK 01 AUDIO
    TITLE "4:cjc032_0848"
    INDEX 01 00:00:00
  TRACK 02 AUDIO
    TITLE "4:cjc032_0849"
    INDEX 01 00:06:10
  TRACK 03 AUDIO
    TITLE "4:cjc032_0850"
    INDEX 01 00:26:69
  TRACK 04 AUDIO
    TITLE "4:cjc032_0851"
    INDEX 01 00:34:00
  TRACK 05 AUDIO
    TITLE "0:"
    INDEX 01 00:54:13
